<?xml version="1.0" encoding="UTF-8"?><svg id="Design" xmlns="http://www.w3.org/2000/svg" viewBox="0 0 1400 1400"><path d="M1064.02,777.79c20.62-48.74,31.07-100.48,31.07-153.79s-10.45-105.05-31.07-153.79c-19.9-47.05-48.38-89.29-84.64-125.56s-78.51-64.74-125.56-84.64c-48.74-20.62-100.48-31.07-153.79-31.07s-105.05,10.45-153.79,31.07c-30.15,12.75-58.32,29.05-84.22,48.64l-77.09-77.09-77.34,77.34,77.09,77.09c-19.59,25.9-35.89,54.07-48.64,84.22-20.62,48.74-31.07,100.48-31.07,153.79s10.45,105.05,31.07,153.79c19.9,47.05,48.38,89.29,84.64,125.56,36.26,36.26,78.51,64.74,125.56,84.64,31.88,13.49,65.05,22.62,99.11,27.33v100.36h-142.16v-.05l-109.43,109.43h109.43s393.7,0,393.7,0h0s109.43,0,109.43,0l-109.43-109.43v.05h-142.16v-100.36c34.05-4.71,67.22-13.84,99.11-27.33,30.15-12.75,58.32-29.05,84.22-48.64l77.09,77.09,77.34-77.34-77.09-77.09c19.59-25.9,35.89-54.06,48.64-84.22ZM700.03,909.68c-76.31,0-148.05-29.72-202.01-83.68-53.96-53.96-83.68-125.7-83.68-202.01,0-57.75,17.03-112.87,48.69-159.66l396.65,396.65c-46.79,31.66-101.91,48.69-159.66,48.69ZM937.02,783.65l-396.65-396.65c46.79-31.66,101.91-48.69,159.66-48.69,76.31,0,148.05,29.72,202.01,83.68,53.96,53.96,83.68,125.7,83.68,202.01,0,57.75-17.03,112.87-48.69,159.66Z"/></svg>