<?xml version="1.0" encoding="UTF-8"?><svg id="Design" xmlns="http://www.w3.org/2000/svg" viewBox="0 0 1400 1400"><path d="M810.87,734.54l-36.33-36.32c11.76-17,21.77-35.16,29.9-54.38,8.7-20.56,15.02-41.81,18.98-63.57h51.35v-109.38h-51.35c-3.96-21.76-10.29-43.01-18.98-63.57-8.13-19.22-18.14-37.38-29.9-54.38l36.33-36.33-38.67-38.67-38.67-38.67-36.33,36.32c-17-11.76-35.16-21.77-54.38-29.9-20.56-8.69-41.81-15.02-63.57-18.98v-51.35h-109.38v51.35c-21.76,3.96-43.01,10.29-63.57,18.98-19.22,8.13-37.38,18.14-54.38,29.9l-36.33-36.32-38.67,38.67-38.67,38.67,36.33,36.33c-11.76,17-21.77,35.16-29.9,54.38-8.7,20.56-15.02,41.81-18.98,63.57h-51.35v109.38h51.35c3.96,21.76,10.29,43.01,18.98,63.57,8.13,19.22,18.14,37.38,29.9,54.38l-36.33,36.32,38.67,38.67,38.67,38.67,36.33-36.32c17,11.76,35.16,21.77,54.38,29.9,20.56,8.69,41.81,15.02,63.57,18.98v51.35h109.38v-51.35c21.76-3.96,43.01-10.29,63.57-18.98,19.22-8.13,37.38-18.14,54.38-29.9l36.33,36.32,38.67-38.67,38.67-38.67ZM711.12,580.26c-3.96,13.5-9.35,26.4-16,38.52-8.93,16.28-20.12,31.15-33.15,44.18-13.03,13.03-27.91,24.22-44.19,33.15-12.12,6.65-25.02,12.04-38.52,16-17.36,5.1-35.71,7.84-54.69,7.84s-37.33-2.75-54.69-7.84c-13.5-3.97-26.4-9.35-38.52-16-16.28-8.93-31.15-20.12-44.18-33.15-13.03-13.03-24.22-27.91-33.16-44.19-6.65-12.12-12.04-25.02-16-38.52-5.1-17.36-7.84-35.71-7.84-54.69s2.75-37.33,7.84-54.69c3.97-13.5,9.35-26.4,16-38.52,8.93-16.28,20.12-31.15,33.15-44.19s27.91-24.22,44.18-33.15c12.12-6.65,25.02-12.04,38.52-16,17.36-5.1,35.71-7.84,54.69-7.84s37.33,2.75,54.69,7.84c13.5,3.97,26.4,9.35,38.52,16,16.28,8.93,31.15,20.12,44.19,33.15,13.03,13.03,24.22,27.91,33.15,44.19,6.65,12.12,12.04,25.02,16,38.52,5.1,17.36,7.84,35.71,7.84,54.69s-2.75,37.33-7.84,54.69Z"/><path d="M1181.97,966.61l42.79-17.44-20.64-50.64-20.64-50.64-44.44,18.11c-9.84-12.39-21.08-23.58-33.53-33.37l18.77-44.61-50.41-21.21-50.41-21.21-18.8,44.69c-15.82-2.05-31.66-2.21-47.22-.6l-18.16-44.56-50.64,20.64-50.64,20.64,17.5,42.92c-13.08,9.71-25.08,21.03-35.67,33.82l-41.7-17.55-21.21,50.41-21.21,50.41,39.37,16.57c-2.66,17.38-3.03,34.81-1.26,51.9l-38.58,15.72,20.64,50.64,20.64,50.64,36.94-15.06c10.64,14.33,23.2,27.36,37.51,38.65l-15.26,36.27,50.41,21.21,50.41,21.21,15.24-36.2c8.78,1.15,17.61,1.74,26.45,1.74s18.36-.64,27.49-1.89l15.01,36.82,50.64-20.64,50.64-20.64-15.68-38.46c13.62-10.82,25.79-23.32,36.24-37.27l39.3,16.54,21.21-50.41,21.21-50.41-41.61-17.51c1.76-16.37,1.53-32.88-.71-49.23ZM1072.89,1011.08c-.98,5.42-2.44,10.79-4.38,16.05-.52,1.42-1.08,2.84-1.67,4.25h0c-1.74,4.14-3.76,8.1-6.01,11.9-6.76,11.4-15.72,21.17-26.41,28.84-5.25,3.77-10.92,7.02-16.94,9.7-.98.44-1.96.88-2.96,1.29-5.42,2.21-10.96,3.9-16.56,5.09-12.13,2.57-24.56,2.75-36.72.55-6.89-1.25-13.69-3.26-20.3-6.05h0c-6.66-2.8-12.83-6.28-18.49-10.3-10.24-7.29-18.75-16.4-25.28-26.69-3.67-5.79-6.72-11.94-9.09-18.36-2.25-6.09-3.89-12.41-4.88-18.87-1.96-12.77-1.36-26.05,2.11-39.06,1.13-4.24,2.56-8.46,4.31-12.62.59-1.41,1.23-2.79,1.88-4.16,2.43-5.08,5.25-9.87,8.42-14.32,8.42-11.83,19.27-21.36,31.56-28.19,4.33-2.41,8.84-4.47,13.49-6.18,4.39-1.62,8.9-2.92,13.5-3.9,6.5-1.38,13.17-2.1,19.89-2.1,8.16,0,16.4,1.05,24.54,3.22,4.25,1.13,8.46,2.56,12.62,4.31,4.14,1.74,8.11,3.76,11.9,6.01,12.97,7.69,23.83,18.25,31.88,30.93,2.5,3.94,4.72,8.08,6.66,12.41.44.98.88,1.96,1.29,2.96,1.48,3.63,2.73,7.32,3.75,11.04,3.8,13.85,4.42,28.22,1.88,42.23Z"/><path d="M600.52,515.88c-1.76-13.88-7.26-26.61-15.44-37.16-1.98-2.55-4.12-4.98-6.4-7.26-2.28-2.28-4.71-4.42-7.26-6.4-10.55-8.18-23.28-13.68-37.16-15.44-3.18-.4-6.41-.61-9.7-.61s-6.52.21-9.7.61c-13.88,1.76-26.61,7.26-37.16,15.44-2.55,1.98-4.98,4.12-7.26,6.4-2.28,2.28-4.42,4.71-6.4,7.26-8.18,10.55-13.68,23.28-15.44,37.16-.4,3.18-.61,6.41-.61,9.7s.21,6.52.61,9.7c1.76,13.88,7.26,26.61,15.44,37.16,1.98,2.55,4.12,4.98,6.4,7.26,2.28,2.28,4.71,4.42,7.26,6.4,10.55,8.18,23.28,13.68,37.16,15.44,3.18.4,6.41.61,9.7.61s6.52-.21,9.7-.61c13.88-1.76,26.61-7.26,37.16-15.44,2.55-1.98,4.98-4.12,7.26-6.4,2.28-2.28,4.42-4.71,6.4-7.26,8.18-10.55,13.68-23.28,15.44-37.16.4-3.18.61-6.41.61-9.7s-.21-6.52-.61-9.7Z"/></svg>