<?xml version="1.0" encoding="UTF-8"?><svg id="Design" xmlns="http://www.w3.org/2000/svg" viewBox="0 0 1400 1400"><path d="M1203.12,525h-201.34l-328.1-328.1v-.02h-319.54s-113.83.03-113.83.03l119.08,119.08v-.07l209.09,209.09h-174.72l-153.13-153.12H87.5s1.13,1.13,1.13,1.13h-1.47v437.5h.34v86.37h480.97l-209.09,209.09v-.07l-119.08,119.08,113.83.03h0s1.3,0,1.3,0h338.28l328.12-328.12h290.66v-109.38h-333.89l-13.45,13.45-95.92,95.92-89.37,89.37-.23-.28-129.66,129.66h-147.12l218.75-218.75h.25l109.37-109.38h-153.1l-.14.14-109.24,109.24v-109.38H196.53v-306.59l153.47,153.47h809.37l153.12,153.12v-153.12l-109.38-109.38ZM721.6,525l-218.75-218.75h127.06l218.75,218.75h-127.06Z"/></svg>