<?xml version="1.0" encoding="UTF-8"?><svg id="Design" xmlns="http://www.w3.org/2000/svg" viewBox="0 0 1400 1400"><path d="M1133.01,665.37c26.4-34.25,40.35-75.26,40.35-118.58,0-96.64-70.89-177.04-163.41-191.91-7.97-55.92-41.29-103.78-87.91-131.55-27.57-16.78-59.92-26.46-94.49-26.46-49.62,0-94.66,19.94-127.55,52.22-32.9-32.28-77.94-52.22-127.55-52.22-34.57,0-66.92,9.68-94.49,26.46-46.62,27.77-79.94,75.63-87.91,131.55-92.51,14.88-163.4,95.27-163.4,191.91,0,43.32,13.95,84.33,40.35,118.58,5.06,6.57,10.55,12.8,16.39,18.65-31.2,34.85-49.55,80.65-49.55,129.73,0,2.97.07,5.93.2,8.87.08,80.74,52.94,149.34,125.87,173.12,8.92,3.36,18.14,6.08,27.62,8.11-.44,5.23-.67,10.49-.67,15.79,0,101.41,82.5,183.91,183.91,183.91,50.32,0,95.99-20.32,129.23-53.19,33.24,32.86,78.9,53.19,129.23,53.19,101.41,0,183.91-82.5,183.91-183.91,0-5.3-.22-10.57-.67-15.79,9.48-2.03,18.71-4.75,27.63-8.11,72.92-23.78,125.78-92.38,125.87-173.12.13-2.94.2-5.9.2-8.87,0-49.08-18.36-94.88-49.55-129.73,5.85-5.85,11.33-12.07,16.39-18.65ZM570.77,1094.18c-41.1,0-74.54-33.44-74.54-74.54,0-10.09,1.96-19.84,5.83-29l1.63-8.35c28.17-15.47,51.84-38.17,68.48-65.58l-83.81-83.81c-5.09,35.24-35.48,62.4-72.1,62.4-7,0-13.76-1.01-20.18-2.86-30.99-12.7-52.89-43.17-52.89-78.69s23.22-68.89,57.77-80.56l-2.84-104.49c-36.58-10.18-62.13-43.86-62.13-81.9,0-43.25,32.47-79.03,74.31-84.31,9.95,19.36,23.36,36.86,39.67,51.63l77.58-77.58c-17.52-13.68-27.99-34.71-27.99-57.42,0-26.17,13.88-49.15,34.65-62.01,10.94-6.41,23.65-10.1,37.22-10.1,40.73,0,73.87,33.14,73.87,73.87v638.77c0,41.1-33.44,74.54-74.54,74.54ZM829.23,1094.18c-41.1,0-74.54-33.44-74.54-74.54V380.87c0-40.73,33.14-73.87,73.87-73.87,13.57,0,26.28,3.69,37.22,10.1,20.77,12.85,34.65,35.83,34.65,62.01,0,22.72-10.47,43.74-27.99,57.42l77.58,77.58c16.31-14.77,29.72-32.27,39.67-51.63,41.84,5.28,74.31,41.06,74.31,84.31,0,38.04-25.55,71.72-62.13,81.9l-2.84,104.49c34.55,11.67,57.77,44.05,57.77,80.56s-21.9,65.99-52.89,78.69c-6.41,1.85-13.18,2.86-20.18,2.86-36.62,0-67.01-27.16-72.1-62.4l-83.81,83.81c16.64,27.42,40.31,50.11,68.48,65.58l1.63,8.35c3.87,9.15,5.84,18.91,5.84,29,0,41.1-33.44,74.54-74.54,74.54Z"/></svg>