<?xml version="1.0" encoding="UTF-8"?><svg id="Design" xmlns="http://www.w3.org/2000/svg" viewBox="0 0 1400 1400"><path d="M1153.51,508.54c-24.78-58.57-60.23-111.17-105.38-156.32-45.15-45.15-97.75-80.61-156.32-105.38-60.67-25.66-125.09-38.67-191.46-38.67s-130.79,13.01-191.46,38.67c-58.57,24.77-111.17,60.23-156.32,105.38-45.15,45.15-80.61,97.75-105.38,156.32-25.66,60.67-38.67,125.09-38.67,191.46s13.01,130.79,38.67,191.46c24.78,58.57,60.23,111.17,105.38,156.32,45.15,45.15,97.75,80.61,156.32,105.38,60.67,25.66,125.09,38.67,191.46,38.67s130.79-13.01,191.46-38.67c58.57-24.77,111.17-60.23,156.32-105.38,45.15-45.15,80.61-97.75,105.38-156.32,25.66-60.67,38.67-125.09,38.67-191.46s-13.01-130.79-38.67-191.46ZM700.35,1082.47c-102.16,0-198.21-39.78-270.44-112.02-72.24-72.24-112.02-168.28-112.02-270.44s39.78-198.21,112.02-270.44c72.24-72.24,168.28-112.02,270.44-112.02s198.21,39.78,270.44,112.02c72.24,72.24,112.02,168.28,112.02,270.44s-39.78,198.21-112.02,270.44c-72.24,72.24-168.28,112.02-270.44,112.02Z"/><path d="M896.64,503.71c-52.43-52.43-122.14-81.31-196.29-81.31s-143.86,28.88-196.29,81.31c-52.43,52.43-81.31,122.14-81.31,196.29s28.88,143.86,81.31,196.29c52.43,52.43,122.14,81.31,196.29,81.31s143.86-28.88,196.29-81.31c52.43-52.43,81.31-122.14,81.31-196.29s-28.88-143.86-81.31-196.29ZM700.35,868.23c-92.76,0-168.23-75.47-168.23-168.23s75.47-168.23,168.23-168.23,168.23,75.47,168.23,168.23-75.47,168.23-168.23,168.23Z"/><circle cx="700.35" cy="700" r="55.82"/></svg>