<?xml version="1.0" encoding="UTF-8"?><svg id="Design" xmlns="http://www.w3.org/2000/svg" viewBox="0 0 1400 1400"><path d="M839.51,379.8l-278.05,134.33-331.77-160.28v629.88l331.77,160.28,276.12-133.39,332.74,173.93v-631.83l-330.8-172.92ZM339.06,528.15l166.84,80.6v386.94l-166.84-80.6v-386.94ZM615.28,609.59l168.58-81.44v386.94l-168.58,81.44v-386.94ZM1060.94,1003.96l-167.71-87.67v-385l167.71,87.67v385Z"/><path d="M561.74,459.37l96.7-197.26c32.52-69.37-14.55-150.77-91.03-155.33-2.33-.14-4.67-.21-7.04-.21-1.15,0-2.29.02-3.43.05-78.36,2.27-127.67,85.74-93.75,156.41l98.55,196.34Z"/></svg>