<?xml version="1.0" encoding="UTF-8"?><svg id="Design" xmlns="http://www.w3.org/2000/svg" viewBox="0 0 1400 1400"><path d="M754.69,644.97v-324.53l-54.69-54.89-3.02-3.03-51.54-51.73c-47.14,5.19-93,17.13-136.9,35.69-58.58,24.77-111.17,60.23-156.32,105.38-45.15,45.15-80.61,97.75-105.38,156.32-25.66,60.67-38.67,125.09-38.67,191.46s13.01,130.79,38.67,191.46c24.78,58.57,60.23,111.17,105.38,156.32,45.15,45.15,97.75,80.61,156.32,105.38,60.67,25.66,125.09,38.67,191.46,38.67s130.79-13.01,191.46-38.67c58.58-24.77,111.17-60.23,156.32-105.38,45.15-45.15,80.61-97.75,105.38-156.32,25.66-60.67,38.67-125.09,38.67-191.46v-54.69h-437.15ZM970.44,970.1c-72.24,72.24-168.28,112.02-270.44,112.02s-198.21-39.78-270.44-112.02-112.02-168.28-112.02-270.44,39.78-198.21,112.02-270.44c59.18-59.18,134.34-96.58,215.76-108.17v433.3h433.3c-11.58,81.41-48.98,156.57-108.17,215.76Z"/></svg>