<?xml version="1.0" encoding="UTF-8"?><svg id="Design" xmlns="http://www.w3.org/2000/svg" viewBox="0 0 1400 1400"><path d="M1235.13,673.75v-305.27l-112.48-112.48h-468.46l-286.82,270.1,181.1,207.9,169.25-153.48,265.47,265.47-53.58,40.1-150.63-150.63-38.67,38.67-38.67,38.67,139.51,139.51-67.18,50.29-133.06-133.06-77.34,77.34,87.12,87.12c-74.92.23-148.79-29.25-203.36-85.14l-173.93-178.38v-509.54l-109.38,109.38v444.67l205.02,210.27c75.42,77.24,177.36,118.13,280.85,118.12,56.18,0,112.83-12.06,165.91-36.89l5.09-2.38,328.9-246.17-428.39-428.39-163.75,148.49-38.7-44.43,178.64-168.22h428.17v308.38h109.38Z"/></svg>